<svg height="480pt" viewBox="-32 0 480 480.00075" width="480pt" xmlns="http://www.w3.org/2000/svg"><path d="m176 112v24h-72c-8.808594.066406-15.933594 7.191406-16 16 .027344 8.828125 7.175781 15.972656 16 16h128c8.808594-.066406 15.933594-7.191406 16-16-.027344-8.824219-7.175781-15.972656-16-16h-24v-24h64c13.253906 0 24-10.746094 24-24s-10.746094-24-24-24h-104v-24h208c8.808594-.066406 15.933594-7.191406 16-16-.027344-8.824219-7.175781-15.972656-16-16h-288c-8.808594.066406-15.933594 7.191406-16 16 .027344 8.828125 7.175781 15.972656 16 16h32v24h-88c-13.253906 0-24 10.746094-24 24s10.746094 24 24 24zm0 0" fill="#96c8ef"/><path d="m360 232h-32v32h32c8.824219.027344 15.972656 7.175781 16 16v64c-.027344 8.828125-7.175781 15.972656-16 16h-32v32h32c26.511719 0 48-21.488281 48-48v-64c0-26.507812-21.488281-48-48-48zm0 0" fill="#96c8ef"/><path d="m221.28125 246.878906c-12.761719-.046875-25.011719 5.023438-34 14.082032l-11.28125 11.28125-11.28125-11.28125c-12.082031-12.296876-29.835938-17.167969-46.503906-12.761719-16.667969 4.40625-29.695313 17.417969-34.121094 34.082031s.421875 34.421875 12.707031 46.519531l79.199219 79.199219 79.199219-79.199219c18.71875-18.742187 18.71875-49.101562 0-67.839843-8.957031-9.054688-21.179688-14.128907-33.917969-14.082032zm0 0" fill="#96c8ef"/><g fill="#1e81ce"><path d="m168 120v8h-64c-13.230469.058594-23.941406 10.769531-24 24 0 13.253906 10.746094 24 24 24h128c13.230469-.054688 23.945312-10.769531 24-24 0-13.253906-10.746094-24-24-24h-16v-8h56c17.671875 0 32-14.324219 32-32 0-17.671875-14.328125-32-32-32h-96v-8h200c6.335938.050781 12.421875-2.46875 16.863281-6.984375 4.59375-4.464844 7.171875-10.609375 7.136719-17.015625 0-13.253906-10.746094-24-24-24h-288c-6.335938-.0507812-12.417969 2.46875-16.863281 6.984375-4.59375 4.464844-7.171875 10.609375-7.136719 17.015625 0 13.253906 10.746094 24 24 24h24v8h-80c-17.671875 0-32 14.328125-32 32 0 17.675781 14.328125 32 32 32zm-152-32c0-8.835938 7.164062-16 16-16h88c4.417969 0 8-3.582031 8-8v-24c0-4.417969-3.582031-8-8-8h-32c-4.417969 0-8-3.582031-8-8-.007812-2.15625.878906-4.222656 2.449219-5.703125 1.464843-1.484375 3.464843-2.3125 5.550781-2.296875h288c4.417969 0 8 3.582031 8 8 .007812 2.160156-.878906 4.222656-2.449219 5.703125-1.464843 1.484375-3.464843 2.3125-5.550781 2.296875h-208c-4.417969 0-8 3.582031-8 8v24c0 4.417969 3.582031 8 8 8h104c8.835938 0 16 7.164062 16 16s-7.164062 16-16 16h-64c-4.417969 0-8 3.582031-8 8v24c0 4.417969 3.582031 8 8 8h24c4.417969 0 8 3.582031 8 8 .007812 2.160156-.878906 4.222656-2.449219 5.703125-1.464843 1.484375-3.464843 2.3125-5.550781 2.296875h-128c-4.417969 0-8-3.582031-8-8-.007812-2.15625.878906-4.222656 2.449219-5.703125 1.464843-1.484375 3.464843-2.3125 5.550781-2.296875h72c4.417969 0 8-3.582031 8-8v-24c0-4.417969-3.582031-8-8-8h-144c-8.835938 0-16-7.164062-16-16zm0 0"/><path d="m88 432c-13.253906 0-24-10.746094-24-24 0-4.417969-3.582031-8-8-8s-8 3.582031-8 8c.027344 22.082031 17.921875 39.972656 40 40 4.417969 0 8-3.582031 8-8s-3.582031-8-8-8zm0 0"/><path d="m360 224h-24v-24c0-4.417969-3.582031-8-8-8h-304c-4.417969 0-8 3.582031-8 8v208c.042969 39.746094 32.253906 71.957031 72 72h176c39.746094-.042969 71.957031-32.253906 72-72v-8h24c30.914062-.035156 55.964844-25.085938 56-56v-64c-.035156-30.914062-25.085938-55.964844-56-56zm-24 48h24c4.417969 0 8 3.582031 8 8v64c0 4.417969-3.582031 8-8 8h-24zm-16 136c-.035156 30.914062-25.085938 55.964844-56 56h-176c-30.914062-.035156-55.964844-25.085938-56-56v-200h288zm80-64c-.027344 22.082031-17.917969 39.972656-40 40h-24v-16h24c13.253906 0 24-10.746094 24-24v-64c0-13.253906-10.746094-24-24-24h-24v-16h24c22.082031.027344 39.972656 17.921875 40 40zm0 0"/><path d="m221.28125 238.878906c-14.898438-.074218-29.195312 5.84375-39.679688 16.425782l-5.601562 5.601562-5.601562-5.601562c-14.085938-14.394532-34.816407-20.113282-54.289063-14.980469-19.476563 5.128906-34.695313 20.324219-39.859375 39.792969-5.164062 19.464843.523438 40.207031 14.894531 54.316406l79.199219 79.199218c3.125 3.121094 8.1875 3.121094 11.3125 0l79.199219-79.199218c15.980469-16.019532 20.753906-40.078125 12.09375-60.980469-8.65625-20.90625-29.042969-34.546875-51.667969-34.574219zm28.261719 84.265625-73.542969 73.542969-73.542969-73.542969c-10.171875-10.097656-14.164062-24.863281-10.464843-38.710937 3.699218-13.847656 14.523437-24.65625 28.375-28.335938 13.851562-3.679687 28.613281.335938 38.695312 10.519532l11.28125 11.28125c3.125 3.121093 8.1875 3.121093 11.3125 0l11.304688-11.304688c15.636718-15.511719 40.867187-15.460938 56.445312.105469 15.574219 15.570312 15.636719 40.800781.136719 56.445312zm0 0"/></g></svg>