<svg height="480pt" viewBox="0 0 480 480" width="480pt" xmlns="http://www.w3.org/2000/svg"><path d="m472 352h-464v120h464zm-408 80c-8.835938 0-16-7.164062-16-16s7.164062-16 16-16 16 7.164062 16 16-7.164062 16-16 16zm0 0" fill="#9bc9ff"/><g fill="#1e81ce"><path d="m64 440c-13.253906 0-24-10.746094-24-24s10.746094-24 24-24 24 10.746094 24 24-10.746094 24-24 24zm0-32c-4.417969 0-8 3.582031-8 8s3.582031 8 8 8 8-3.582031 8-8-3.582031-8-8-8zm0 0"/><path d="m472 0h-120c-4.417969 0-8 3.582031-8 8v336h-336c-4.417969 0-8 3.582031-8 8v120c0 4.417969 3.582031 8 8 8h464c4.417969 0 8-3.582031 8-8v-464c0-4.417969-3.582031-8-8-8zm-112 16h104v24h-56v16h56v32h-40v16h40v40h-56v16h56v32h-40v16h40v40h-56v16h56v32h-40v16h40v32h-104zm104 448h-448v-104h448zm0 0"/></g></svg>