<svg height="480pt" viewBox="0 -19 480 479" width="480pt" xmlns="http://www.w3.org/2000/svg"><path d="m88 112.5h384v320h-384zm0 0" fill="#9bc9ff"/><path d="m64 272.5c0 8.835938-7.164062 16-16 16s-16-7.164062-16-16 7.164062-16 16-16 16 7.164062 16 16zm0 0" fill="#9bc9ff"/><path d="m104 8.5-32 24 32 24h336v-48zm0 0" fill="#9bc9ff"/><g fill="#1e81ce"><path d="m0 104.5v336h480v-336zm16 320v-304h64v304zm448-304v304h-368v-304zm0 0"/><path d="m48 248.5c-13.253906 0-24 10.746094-24 24s10.746094 24 24 24 24-10.746094 24-24-10.746094-24-24-24zm0 32c-4.417969 0-8-3.582031-8-8s3.582031-8 8-8 8 3.582031 8 8-3.582031 8-8 8zm0 0"/><path d="m40 136.5h16v32h-16zm0 0"/><path d="m40 184.5h16v32h-16zm0 0"/><path d="m40 320.5h16v32h-16zm0 0"/><path d="m40 368.5h16v32h-16zm0 0"/><path d="m128 152.5h40v-16h-56v56h16zm0 0"/><path d="m432 192.5h16v-56h-56v16h40zm0 0"/><path d="m168 408.5v-16h-40v-40h-16v56zm0 0"/><path d="m448 352.5h-16v40h-40v16h56zm0 0"/><path d="m448 8.5v-8h-346.664062l-42.671876 32 42.671876 32h346.664062v-8h32v-48zm-362.664062 24 21.328124-16h325.335938v32h-325.335938zm378.664062 8h-16v-16h16zm0 0"/><path d="m128 24.5h32v16h-32zm0 0"/><path d="m168 24.5h32v16h-32zm0 0"/></g></svg>